<?xml version="1.0" standalone="no"?>
<!DOCTYPE svg PUBLIC "-//W3C//DTD SVG 1.1//EN" "http://www.w3.org/Graphics/SVG/1.1/DTD/svg11.dtd" >
<svg xmlns="http://www.w3.org/2000/svg">
<metadata>Generated by IcoMoon</metadata>
<defs>
<font id="entypo" horiz-adv-x="512">
<font-face units-per-em="512" ascent="480" descent="-32" />
<missing-glyph horiz-adv-x="512" />
<glyph unicode="&#x20;" d="" horiz-adv-x="256" />
<glyph unicode="&#xe600;" d="M384 409.6h-51.2c-14.157 0-25.6-1.229-25.6-15.36v-327.68c0-14.131 11.443-15.36 25.6-15.36h51.2c14.157 0 25.6 1.229 25.6 15.36v327.68c0 14.131-11.443 15.36-25.6 15.36zM179.2 409.6h-51.2c-14.157 0-25.6-1.229-25.6-15.36v-327.68c0-14.131 11.443-15.36 25.6-15.36h51.2c14.157 0 25.6 1.229 25.6 15.36v327.68c0 14.131-11.443 15.36-25.6 15.36z" />
<glyph unicode="&#xe601;" d="M384 230.374c0-7.655-7.808-13.159-7.808-13.159l-219.161-135.757c-15.975-10.471-29.030-2.714-29.030 17.127v263.603c0 19.891 13.056 27.597 29.056 17.152l219.161-135.808c-0.026 0 7.783-5.504 7.783-13.159z" />
<glyph unicode="&#xe602;" d="M363.546 251.034c35.558-48.205 46.541-90.035 39.911-96.691-6.656-6.605-48.461 4.352-96.717 39.911l-141.465-141.491c107.162-47.053 246.451 51.661 271.488 76.697 23.68 23.603 2.483 84.711-47.514 147.303l-25.702-25.728zM221.875 283.111c-28.135 42.445-36.633 77.389-30.566 83.456 5.965 5.99 40.96-2.457 83.379-30.643l26.189 26.24c-57.959 42.855-112.512 59.75-134.579 37.606-23.757-23.705-113.869-150.451-82.713-254.899l138.291 138.24zM474.137 448.563c-9.984 10.010-26.189 10.010-36.199 0l-400.103-400.128c-10.009-10.010-10.009-26.214 0-36.199 10.010-10.010 26.189-10.010 36.198 0l400.102 400.128c10.010 10.009 10.010 26.214 0 36.198z" />
<glyph unicode="&#xe603;" d="M135.987 369.51c-28.723-28.646-154.291-207.744-45.798-316.211 108.441-108.493 287.488 17.101 316.263 45.798 28.697 28.647-8.576 112.512-83.251 187.187-74.726 74.726-158.489 112.026-187.213 83.226zM373.146 124.006c-8.499-8.397-74.112 11.699-137.319 74.957-63.155 63.207-83.353 128.845-74.855 137.293 8.397 8.499 74.087-11.699 137.216-74.905 63.257-63.155 83.405-128.845 74.957-137.344zM395.111 333.261l48.743 48.793c10.010 10.010 10.010 26.189 0 36.199-9.984 10.010-26.189 10.010-36.199 0l-48.743-48.793c-10.010-10.010-10.010-26.214 0-36.199 9.984-9.984 26.189-9.984 36.199 0zM284.774 389.12c12.365-6.861 27.93-2.432 34.816 9.933l27.827 49.305c6.861 12.365 2.432 27.93-9.933 34.816-12.339 6.887-27.93 2.432-34.816-9.933l-27.827-49.305c-6.861-12.39-2.406-27.981 9.933-34.816zM508.723 311.911c-6.835 12.365-22.451 16.819-34.816 9.933l-49.664-27.161c-12.365-6.861-16.819-22.477-9.933-34.816 6.861-12.365 22.451-16.819 34.816-9.933l49.664 27.162c12.365 6.886 16.819 22.451 9.933 34.816z" />
<glyph unicode="&#xe604;" d="M367.309 106.265c-12.007-12.007-31.462-12.007-43.443 0l-67.865 77.568-67.865-77.543c-12.006-12.007-31.463-12.007-43.443 0-12.006 12.007-12.006 31.462 0 43.443l70.605 80.64-70.63 80.691c-12.006 12.006-12.006 31.437 0 43.443s31.437 12.007 43.443 0l67.891-77.593 67.865 77.593c12.007 12.007 31.437 12.007 43.443 0s12.007-31.462 0-43.443l-70.605-80.691 70.605-80.64c12.007-12.007 12.007-31.462 0-43.469z" />
<glyph unicode="&#xe605;" d="M256 434.969c-70.707 0-128-57.062-128-127.744 0-122.215 128-281.6 128-281.6s128 159.411 128 281.6c0 70.656-57.293 127.744-128 127.744zM256 236.544c-38.195 0-69.12 30.951-69.12 69.12s30.925 69.12 69.12 69.12c38.144 0 69.094-30.95 69.094-69.12s-30.95-69.12-69.094-69.12z" />
<glyph unicode="&#xe606;" d="M40.294 351.079c12.493-6.707 185.549-99.686 192-103.143s14.797-5.095 23.194-5.095c8.397 0 16.743 1.638 23.194 5.095s179.507 96.435 192 103.142c12.519 6.733 24.346 32.922 1.382 32.922h-433.127c-22.963 0-11.136-26.189 1.357-32.922zM476.493 294.682c-14.208-7.399-189.107-98.535-197.811-103.091s-14.797-5.094-23.194-5.094-14.489 0.538-23.194 5.094-182.605 95.719-196.813 103.117c-9.984 5.223-9.882-0.896-9.882-5.606s0-186.701 0-186.701c0-10.752 14.489-25.6 25.6-25.6h409.6c11.111 0 25.6 14.848 25.6 25.6 0 0 0 181.965 0 186.675s0.103 10.829-9.907 5.606z" />
<glyph unicode="&#xe607;" d="M497.843 391.219l-153.6 76.8c-7.193 3.609-15.693 3.609-22.912 0l-144.128-72.064-143.513 47.846c-7.834 2.611-16.384 1.305-23.066-3.533-6.681-4.813-10.624-12.544-10.624-20.762v-332.825c0-9.702 5.479-18.56 14.157-22.887l153.6-76.8c3.609-1.792 7.526-2.714 11.443-2.714s7.859 0.896 11.443 2.714l144.128 72.038 143.514-47.846c7.808-2.56 16.384-1.255 23.065 3.558s10.624 12.544 10.624 20.736v332.851c0.026 9.702-5.453 18.56-14.131 22.887zM204.8 352.486l102.4 51.2v-301.133l-102.4-51.2v301.133zM51.2 384l102.4-34.125v-298.522l-102.4 51.2v281.447zM460.8 70.989l-102.4 34.151v298.547l102.4-51.2v-281.498z" />
<glyph unicode="&#xe608;" d="M358.502 486.4h-205.005c-28.211 0-51.097-22.886-51.097-51.097v-409.779c0-28.237 22.886-51.123 51.097-51.123h204.979c28.237 0 51.123 22.887 51.123 51.098v409.805c0 28.211-22.887 51.098-51.098 51.098zM256 0c-17.664 0-32 11.443-32 25.6s14.336 25.6 32 25.6 32-11.443 32-25.6-14.336-25.6-32-25.6zM358.4 76.8h-204.8v358.4h204.8v-358.4z" />
<glyph unicode="&#xe609;" d="M287.462 198.938c-40.525-40.499-87.475-79.257-106.035-60.697-26.547 26.547-42.931 49.69-101.504 2.611-58.547-47.053-13.568-78.438 12.16-104.141 29.696-29.696 140.391-1.587 249.805 107.801 109.389 109.415 137.421 220.109 107.699 249.805-25.728 25.753-56.96 70.707-104.013 12.16-47.079-58.547-23.962-74.931 2.637-101.504 18.483-18.56-20.25-65.51-60.749-106.035z" />
<glyph unicode="&#xe60a;" d="M409.6 230.4c0-14.157-1.229-25.6-15.385-25.6h-112.615v-112.615c0-14.131-11.443-15.385-25.6-15.385s-25.6 1.255-25.6 15.385v112.615h-112.615c-14.131 0-15.385 11.443-15.385 25.6s1.254 25.6 15.386 25.6h112.615v112.615c0 14.157 11.443 15.385 25.6 15.385s25.6-1.229 25.6-15.385v-112.615h112.615c14.157 0 15.385-11.443 15.385-25.6z" />
<glyph unicode="&#xe60b;" d="M206.643 248.294c0 0 48.435 3.763 48.435 62.951 0 59.264-39.629 88.089-89.856 88.089h-165.222v-330.906h165.222c0 0 100.889-3.303 100.889 97.69-0.026 0.026 4.377 82.176-59.469 82.176zM72.806 340.557h92.416c0 0 22.477 0 22.477-34.406 0-34.458-13.209-39.45-28.211-39.45h-86.681v73.856zM160.537 127.257h-87.731v88.448h92.416c0 0 33.485 0.461 33.485-45.44 0-38.707-25.011-42.726-38.169-43.008zM400.615 315.187c-122.137 0-122.035-127.155-122.035-127.155s-8.346-126.49 122.035-126.49c0 0 108.621-6.502 108.621 87.987h-55.859c0 0 1.843-35.61-50.893-35.61 0 0-55.911-3.891-55.911 57.6h164.429c0.026 0.026 18.15 143.667-110.387 143.667zM450.304 215.705h-104.294c0 0 6.81 50.995 55.859 50.995s48.435-50.995 48.435-50.995zM463.283 379.904h-130.995v-40.807h130.995v40.807z" />
<glyph unicode="&#xe60c;" d="M156.391 463.309l-146.15-91.008 100.121-83.942 145.638 94.541-99.609 80.41zM344.371 77.005c-2.611 0-5.197 0.845-7.296 2.611l-81.075 67.277-81.075-67.303c-2.099-1.741-4.71-2.611-7.296-2.611-2.176 0-4.352 0.589-6.246 1.843l-60.058 39.245v-23.142l154.675-97.433 154.675 97.459v23.142l-60.058-39.245c-1.894-1.255-4.070-1.843-6.247-1.843zM501.76 372.301l-146.176 91.008-99.584-80.409 145.613-94.541 100.147 83.942zM256 197.35l90.317-74.957 144.409 94.413-89.113 71.552-145.613-91.008zM165.683 122.393l90.317 74.957-145.638 91.008-89.088-71.552 144.41-94.413z" />
<glyph unicode="&#xe60d;" d="M443.878 376.141c0 29.44-44.339 32.691-44.339 32.691l-104.166 6.553c0 0-2.227 28.339-23.271 38.195-21.043 9.805-44.185 6.809-60.826 6.656-16.64-0.179-20.557-21.376-20.557-41.395 0-19.994 0.358-43.111 0.358-57.6 0-26.061-11.443-37.094-40.089-37.094h-59.059c-16.512 1.049-29.363-1.639-29.363-15.002 0-13.389 19.43-127.309 46.106-153.6 15.488-15.257 110.208-25.959 130.15-25.959s13.286 58.906 18.841 58.906c5.555 0 11.623-33.255 43.059-41.037 31.385-7.859 73.318-6.4 75.546-28.749 2.893-29.491 5.555-67.635-13.849-70.349l-43.93-1.741c-30.106 2.151-22.016 35.046-8.729 35.046s19.942 0.486 19.942 0.486l1.664 35.993c0 0-68.941 8.141-71.859-38.349-2.688-42.496 4.608-62.541 9.959-66.893 5.351-4.403 14.618-12.902 99.046-12.902 118.963 0 75.367 346.701 75.367 376.141zM395.264 222.208c-4.659-5.017-21.555 8.192-37.683 8.192-16.154 0-33.562-8.551-37.658-2.893-4.096 5.607 3.738 50.944 34.151 50.944s45.901-51.302 41.19-56.243zM148.583 379.75c0 5.863 1.485 76.391 1.485 76.391l-89.728-88.064c0 0 62.003 0 74.189 0 12.185 0.025 14.054 5.863 14.054 11.673z" />
<glyph unicode="&#xe60e;" d="M256 455.705c-124.442 0-225.28-100.864-225.28-225.305 0-124.391 100.838-225.306 225.305-225.306 124.416 0 225.28 100.889 225.28 225.306-0.026 124.441-100.864 225.305-225.305 225.305zM346.573 221.747c-12.185 17.050-24.653 33.792-38.323 49.639-12.825 14.951-26.471 29.209-41.318 42.112-14.797 12.903-30.925 25.139-48.64 33.69-11.904 5.76-24.166 10.061-36.839 13.721-1.434 0.384-5.325 2.15-6.451 0.384-0.717-1.101-0.154-3.149-0.051-4.352 0.358-2.637 0.666-5.248 0.999-7.885 3.789-31.437 5.222-64.64-4.557-95.207-5.222-16.461-14.797-31.488-27.52-43.162-10.573-9.702-25.651-19.456-40.627-18.739-2.765 0.103-5.581 0.589-8.294 1.51-16.025 5.401-16.973 22.682-17.075 36.941-0.103 15.309 1.741 30.592 5.529 45.44 1.152 4.557 2.585 9.037 4.096 13.491 17.536 50.841 58.112 92.211 109.030 110.259 19.047 6.758 39.219 10.163 59.469 10.163 59.546 0 116.199-30.592 148.915-80.307 8.192-12.493 14.771-26.010 19.61-40.090h-0.077c1.562-4.454 2.995-8.96 4.173-13.491 3.738-14.848 5.632-30.157 5.529-45.44-0.205-28.8-9.472-60.595-45.645-45.338-17.075 7.219-31.334 21.811-41.933 36.659z" />
<glyph unicode="&#xe60f;" d="M202.599 213.069h42.471c92.262 0 144.614 41.549 161.28 126.976 0.538 2.816 1.024 5.53 1.433 8.243 0.921 5.785 1.382 10.982 1.587 15.974 0.154 3.43 0.256 5.453 0.231 7.347-0.205 10.010-1.971 18.483-5.529 26.599-3.303 7.577-8.294 15.027-15.693 23.501-21.837 24.832-59.879 39.091-105.318 39.091h-144.717c-10.189 0-18.867-7.424-20.454-17.485l-26.112-168.218-32.486-209.536c-1.178-7.552 4.659-14.361 12.288-14.361h70.963l21.734 129.101c2.995 18.944 19.123 32.768 38.323 32.768zM435.635 330.496c-20.275-96.537-85.939-147.763-190.592-147.763h-42.445c-4.198 0-7.731-3.021-8.397-7.219l-28.288-175.513h74.419c8.909 0 16.512 6.477 17.894 15.283l0.743 3.84 14.208 89.959 0.921 4.966c1.382 8.807 8.986 15.283 17.894 15.283h11.264c72.96 0 130.074 29.645 146.765 115.354 6.861 35.328 3.379 64.871-14.387 85.811z" />
<glyph unicode="&#xe610;" d="M148.685 439.731c-79.079-40.653-128.205-120.857-128.205-209.869 0-16.205 2.048-32.64 5.657-49.101l203.494 185.319c-21.709 19.738-78.746 71.654-80.947 73.651zM353.101 444.774c-30.72 13.952-63.385 21.146-97.126 21.146-23.91 0-47.488-3.994-70.374-11.29l167.501-152.345v142.489zM388.915 423.987v-271.795h89.216c8.781 25.139 13.363 51.303 13.363 77.696 0.026 77.645-38.963 150.323-102.579 194.099zM37.453 142.617c17.255-43.341 47.539-80.64 86.221-107.111v185.6l-52.352-47.642c-17.869-16.231-32.768-29.849-33.869-30.848zM159.488 14.72c23.936-10.803 48.973-17.459 74.752-19.84h43.238c77.286 7.193 146.611 52.941 184.295 121.447h-302.285v-101.606z" />
<glyph unicode="&#xe611;" d="M477.978 178.253c3.379 15.949 5.197 32.563 5.197 49.613 0 127.642-100.608 231.143-224.691 231.143-13.082 0-25.907-1.203-38.4-3.405-20.096 13.005-43.827 20.557-69.299 20.557-71.962 0-130.304-60.007-130.304-134.067 0-24.704 6.553-47.897 17.895-67.789-2.97-15.001-4.557-30.566-4.557-46.464 0-127.642 100.608-231.143 224.64-231.143 14.106 0 27.827 1.305 41.139 3.84 18.355-10.137 39.296-15.897 61.594-15.897 71.962 0 130.304 60.007 130.304 134.042 0.026 21.427-4.864 41.625-13.517 59.571zM373.735 117.35c-10.394-15.104-25.753-27.111-45.645-35.609-19.687-8.448-43.315-12.697-70.195-12.697-32.256 0-59.315 5.811-80.461 17.357-15.104 8.397-27.546 19.738-36.992 33.741-9.523 14.208-14.362 28.262-14.362 41.805 0 8.448 3.149 15.795 9.344 21.811 6.144 5.939 14.054 9.011 23.45 9.011 7.706 0 14.387-2.406 19.789-7.091 5.171-4.505 9.6-11.213 13.159-19.789 3.994-9.395 8.345-17.305 12.928-23.552 4.403-5.99 10.752-11.059 18.816-15.002 8.141-3.942 19.149-5.939 32.64-5.939 18.56 0 33.792 4.045 45.261 12.109 11.213 7.911 16.64 17.305 16.64 28.851 0 9.139-2.841 16.307-8.704 21.939-6.093 5.837-14.208 10.445-23.962 13.594-10.214 3.251-24.089 6.81-41.242 10.496-23.296 5.146-43.085 11.238-58.855 18.099-16.128 7.040-29.107 16.845-38.605 29.107-9.6 12.365-14.515 27.955-14.515 46.259 0 17.459 5.12 33.203 15.257 46.797 10.061 13.44 24.704 23.936 43.597 31.155 18.637 7.091 40.857 10.701 65.946 10.701 20.045 0 37.709-2.406 52.403-7.091 14.797-4.762 27.289-11.161 37.094-19.046 9.907-7.962 17.255-16.461 21.863-25.241 4.659-8.96 7.040-17.792 7.040-26.394 0-8.243-3.098-15.744-9.241-22.298-6.144-6.605-13.901-9.907-23.040-9.907-8.295 0-14.848 2.099-19.353 6.195-4.199 3.789-8.601 9.805-13.414 18.355-5.606 10.957-12.39 19.609-20.173 25.651-7.552 5.939-20.173 8.96-37.529 8.96-16.102 0-29.209-3.353-38.887-9.907-9.421-6.375-13.952-13.619-13.952-22.169 0-5.299 1.485-9.702 4.506-13.44 3.2-4.045 7.706-7.552 13.389-10.496 5.888-3.072 11.955-5.478 18.048-7.219 6.246-1.792 16.743-4.403 31.104-7.859 18.202-3.994 34.893-8.499 49.639-13.338 14.976-4.941 27.904-11.008 38.451-18.048 10.752-7.245 19.303-16.512 25.319-27.546 6.067-11.111 9.139-24.807 9.139-40.704 0.026-19.072-5.274-36.403-15.693-51.609z" />
<glyph unicode="&#xe612;" d="M332.8 305.152c35.353 0 64 28.646 64 64s-28.647 64-64 64-64-28.647-64-64 28.672-64 64-64zM482.432 334.259c-91.648-65.408-133.863-53.965-175.232-52.659-28.621 1.459-38.4-7.629-38.4-27.648l0.026-153.6c0-128 215.577-87.808 132.224 126.695 42.778 24.55 78.745 62.31 99.226 87.347 10.522 15.565-0.717 31.872-17.843 19.865zM179.2 433.152c-35.353 0-64-28.647-64-64s28.647-64 64-64 64 28.646 64 64-28.672 64-64 64zM204.8 281.6c-41.37-1.306-83.584-12.749-175.232 52.659-17.127 12.006-28.365-4.301-17.843-19.84 20.48-25.063 56.448-62.797 99.225-87.347-83.353-214.503 132.224-254.695 132.224-126.695l0.025 153.6c0 19.994-9.779 29.082-38.4 27.623z" />
<glyph unicode="&#xe613;" d="M17.203 152.192l8.397 35.865-8.397 37.043c-0.23 1.101-2.355 1.945-4.889 1.945-2.611 0-4.71-0.845-4.889-1.945l-7.424-37.043 7.399-35.84c0.205-1.152 2.304-1.945 4.89-1.945 2.56-0.026 4.685 0.768 4.915 1.92zM69.709 132.301l7.091 55.399-7.091 85.709c-0.231 2.151-2.918 3.891-6.118 3.891-3.251 0-5.965-1.741-6.093-3.891l-6.297-85.709 6.297-55.399c0.154-2.202 2.841-3.891 6.093-3.891 3.2 0 5.888 1.69 6.118 3.891zM122.061 133.197l5.939 54.451-5.939 114.099c-0.153 2.713-3.302 4.813-7.219 4.813-3.891 0-7.040-2.099-7.194-4.813l-5.248-114.099 5.248-54.502c0.153-2.637 3.302-4.762 7.194-4.762 3.917 0.026 7.066 2.125 7.219 4.813zM174.336 133.99l4.864 53.658-4.864 114.944c-0.128 3.149-3.738 5.657-8.192 5.657-4.506 0-8.089-2.509-8.218-5.657l-4.327-114.944 4.352-53.658c0.102-3.149 3.712-5.658 8.192-5.658 4.454 0.026 8.064 2.457 8.192 5.658zM226.56 134.707l3.84 52.889-3.84 131.815c-0.102 3.635-4.198 6.528-9.165 6.528s-9.063-2.944-9.139-6.554l-3.456-131.738 3.456-52.941c0.077-3.61 4.173-6.553 9.139-6.553s9.063 2.893 9.165 6.553zM263.091 128.102c0.205 0 181.76-0.103 182.912-0.103 36.454 0 65.997 28.595 65.997 63.846s-29.543 63.795-65.997 63.795c-9.037 0-17.639-1.792-25.498-4.941-5.248 57.498-55.117 102.605-115.942 102.605-14.873 0-29.389-2.841-42.189-7.603-5.017-1.894-6.323-3.789-6.375-7.552v-202.496c0.051-3.917 3.175-7.142 7.091-7.552z" />
<glyph unicode="&#xe614;" d="M256 455.68c-124.442 0-225.28-100.813-225.28-225.28 0-124.391 100.838-225.28 225.28-225.28 124.467 0 225.255 100.864 225.255 225.28 0 124.441-100.762 225.28-225.255 225.28zM345.037 115.149c-4.429 0-7.526 1.69-10.777 3.661-30.438 18.457-68.147 28.135-109.005 28.135-20.839 0-43.341-2.483-66.816-7.296l-2.867-0.717c-2.97-0.717-6.016-1.51-8.345-1.51-9.498 0-16.922 7.373-16.922 16.793 0 9.549 5.376 16.307 14.387 17.997 28.058 6.4 54.477 9.523 80.691 9.523 47.488 0 89.933-11.008 126.234-32.743 6.221-3.635 10.137-7.834 10.137-17.101-0.026-9.241-7.501-16.743-16.717-16.743zM368.409 180.71c-5.299 0-8.781 2.022-11.853 3.815-54.861 32.538-136.525 43.341-203.802 25.421-1.126-0.333-2.15-0.64-3.072-0.947-2.535-0.793-4.889-1.587-8.218-1.587-11.059 0-20.045 9.037-20.045 20.173 0 10.726 5.606 18.227 15.718 21.095 25.933 7.117 50.279 11.827 85.325 11.827 56.627 0 111.539-14.208 154.573-39.962 7.834-4.48 11.392-10.599 11.392-19.738 0-11.111-8.986-20.096-20.019-20.096zM394.931 255.463c-4.992 0-8.064 1.203-12.672 3.686-37.197 22.323-95.232 35.61-155.367 35.61-31.334 0-59.802-3.456-84.633-10.163-0.845-0.205-1.638-0.435-2.509-0.691-2.637-0.793-5.939-1.741-9.344-1.741-13.21 0-23.526 10.445-23.526 23.782 0 11.597 6.502 20.454 17.408 23.68 29.978 8.857 64.487 13.337 102.553 13.337 68.557 0 133.785-15.232 178.97-41.753 8.499-4.839 12.672-12.16 12.672-22.323 0-13.133-10.342-23.424-23.552-23.424z" />
<glyph unicode="&#xe615;" d="M446.771 231.655c-11.213-2.586-22.093-3.712-31.846-3.712-54.912 0-97.203 38.297-97.203 105.011 0 32.691 12.621 49.69 30.515 49.69 16.998 0 28.339-15.257 28.339-46.208 0-17.613-4.711-36.864-8.192-48.307 0 0 16.896-29.491 63.207-20.455 9.856 21.811 15.181 50.074 15.181 74.855 0 66.688-34.048 105.447-96.333 105.447-64.103 0-101.581-49.203-101.581-114.202 0-64.307 30.080-119.501 79.693-144.666-20.864-41.702-47.411-78.464-75.085-106.137-50.202 60.697-95.591 141.671-114.253 299.674h-73.984c34.176-263.143 136.166-346.957 163.149-363.034 15.257-9.165 28.365-8.729 42.343-0.87 21.888 12.416 87.603 78.183 124.083 155.161 15.283 0.051 33.639 1.767 51.968 5.913v51.84z" />
<glyph unicode="&#xe616;" d="M244.864 296.423c-34.765 61.798-71.962 112.205-74.675 115.917-56.090-26.522-97.945-78.208-111.027-140.467 5.273-0.103 89.139-1.101 185.702 24.55zM269.901 228.838c2.611 0.845 5.274 1.638 7.911 2.406-5.043 11.443-10.547 22.912-16.307 34.202-103.577-31.027-202.957-28.775-206.464-28.672-0.077-2.15-0.179-4.25-0.179-6.4 0-51.687 19.533-98.842 51.609-134.451l-0.128 0.154c0 0 55.040 97.639 163.558 132.762zM132.377 71.833v0.103c-1.485 1.152-3.072 2.202-4.557 3.456 2.713-2.176 4.557-3.558 4.557-3.558zM207.821 425.677c-0.179-0.051-0.384-0.103-0.384-0.103 0.154 0.051 0.358 0.051 0.358 0.051l0.025 0.051zM388.839 381.337c-35.43 31.181-81.894 50.202-132.839 50.202-16.358 0-32.205-1.997-47.411-5.657 3.072-4.096 40.832-54.247 75.213-117.351 75.827 28.391 104.474 71.987 105.037 72.806zM256-5.12c-130.048 0-235.494 105.447-235.494 235.495-0.026 130.099 105.421 235.545 235.494 235.545 130.099 0 235.52-105.446 235.52-235.545 0-130.048-105.421-235.495-235.52-235.495zM290.202 197.478c-118.041-41.139-157.030-123.853-157.824-125.543 34.15-26.649 76.954-42.649 123.597-42.649 27.853 0 54.4 5.658 78.515 15.897-2.969 17.639-14.669 79.257-42.983 152.755-0.409-0.154-0.845-0.307-1.305-0.461zM299.264 278.528c4.711-9.549 9.165-19.303 13.389-29.159 1.51-3.456 2.918-6.963 4.352-10.393 69.453 8.755 137.856-6.093 140.109-6.554-0.486 47.693-17.562 91.443-45.747 125.747-0.461-0.589-32.743-47.181-112.103-79.641zM329.241 207.232c26.394-72.601 37.094-131.635 39.142-143.642 45.159 30.49 77.261 78.848 86.195 134.912-3.993 1.28-60.313 19.123-125.337 8.729z" />
<glyph unicode="&#xe617;" d="M435.2 460.8h-358.4c-28.16 0-51.2-23.040-51.2-51.2v-358.4c0-28.185 23.040-51.2 51.2-51.2h179.2v179.2h-51.2v63.36h51.2v52.48c0 55.398 31.027 94.31 96.409 94.31l46.157-0.051v-66.688h-30.643c-25.447 0-35.123-19.097-35.123-36.813v-43.264h65.741l-14.541-63.335h-51.2v-179.2h102.4c28.16 0 51.2 23.014 51.2 51.2v358.4c0 28.16-23.040 51.2-51.2 51.2z" />
<glyph unicode="&#xe618;" d="M128 128c-56.013 0-101.376 45.798-101.376 102.4s45.363 102.4 101.376 102.4c55.987 0 101.376-45.798 101.376-102.4s-45.389-102.4-101.376-102.4zM384 128c-56.013 0-101.376 45.798-101.376 102.4s45.363 102.4 101.376 102.4c55.987 0 101.376-45.798 101.376-102.4s-45.389-102.4-101.376-102.4z" />
<glyph unicode="&#xe619;" d="M337.408 196.889c-18.381 0-33.28-20.659-33.28-46.055 0-25.447 14.899-46.106 33.28-46.106s33.28 20.659 33.28 46.106c-0.026 25.395-14.899 46.055-33.28 46.055zM453.274 316.774c3.815 9.344 3.968 62.439-16.256 113.305 0 0-46.361-5.094-116.505-53.248-14.72 4.096-39.629 6.093-64.486 6.093-24.909 0-49.792-1.997-64.512-6.093-70.169 48.154-116.531 53.248-116.531 53.248-20.198-50.867-19.993-103.962-16.23-113.306-23.757-25.805-38.272-56.806-38.272-99.097 0-183.962 152.653-186.905 191.155-186.905 8.755 0 26.061-0.051 44.391-0.051 18.304 0 35.635 0.051 44.339 0.051 38.553 0 191.155 2.944 191.155 186.905 0 42.291-14.49 73.293-38.246 99.098zM256.717 53.376h-1.434c-96.537 0-171.75 11.495-171.75 105.344 0 22.502 7.936 43.341 26.803 60.647 31.411 28.851 84.608 13.594 144.947 13.594 0.256 0 0.512 0 0.742 0 0.256 0 0.461 0 0.691 0 60.339 0 113.561 15.257 144.998-13.594 18.816-17.305 26.752-38.144 26.752-60.647 0-93.849-75.187-105.344-171.75-105.344zM174.618 196.889c-18.381 0-33.28-20.659-33.28-46.055 0-25.447 14.899-46.106 33.28-46.106 18.406 0 33.305 20.659 33.305 46.106 0 25.395-14.899 46.055-33.305 46.055z" />
<glyph unicode="&#xe61a;" d="M50.919 343.322c0-38.246 12.774-65.843 37.939-82.048 20.633-13.312 44.544-15.309 56.986-15.309 3.021 0 5.453 0.154 7.143 0.256 0 0-3.942-25.703 15.104-51.098h-0.87c-32.999 0-140.621-6.887-140.621-95.411 0-90.010 98.841-94.592 118.681-94.592 1.561 0 2.483 0.051 2.483 0.051 0.205 0 1.613-0.051 4.045-0.051 12.723 0 45.619 1.587 76.16 16.461 39.629 19.2 59.725 52.711 59.725 99.456 0 45.159-30.618 72.038-52.966 91.699-13.645 12.007-25.447 22.349-25.447 32.41 0 10.24 8.627 17.946 19.507 27.699 17.638 15.744 34.279 38.195 34.279 80.64 0 37.299-4.839 62.361-34.662 78.259 3.097 1.587 14.106 2.739 19.533 3.507 16.154 2.202 39.783 4.711 39.783 17.894v2.534h-117.734c-1.178-0.051-119.066-4.403-119.066-112.358zM240.973 112.589c2.253-35.993-28.544-62.541-74.803-65.894-46.976-3.456-85.632 17.69-87.885 53.657-1.101 17.305 6.502 34.202 21.376 47.693 15.079 13.645 35.789 22.093 58.317 23.757 2.662 0.154 5.299 0.307 7.936 0.307 43.494-0.026 72.934-25.575 75.059-59.52zM210.227 367.975c11.546-40.653-5.888-83.098-33.69-90.957-3.2-0.896-6.477-1.331-9.831-1.331-25.447 0-50.662 25.754-60.032 61.261-5.222 19.865-4.787 37.325 1.203 54.067 5.862 16.512 16.461 27.597 29.773 31.36 3.2 0.896 6.502 1.357 9.856 1.357 30.72 0 50.483-12.749 62.72-55.757zM409.6 281.6v76.8h-51.2v-76.8h-76.8v-51.2h76.8v-76.8h51.2v76.8h76.8v51.2h-76.8z" />
<glyph unicode="&#xe61b;" d="M435.2 460.8h-358.4c-28.16 0-51.2-23.040-51.2-51.2v-358.4c0-28.185 23.040-51.2 51.2-51.2h358.4c28.16 0 51.2 23.014 51.2 51.2v358.4c0 28.16-23.040 51.2-51.2 51.2zM255.59 89.011c78.311 0 141.773 63.514 141.773 141.799 0 8.653-1.101 16.999-2.637 25.19h40.474v-184.73c0-9.779-7.936-17.664-17.741-17.664h-322.918c-9.805 0-17.741 7.885-17.741 17.664v184.73h39.654c-1.561-8.192-2.662-16.537-2.662-25.191 0-78.311 63.513-141.799 141.798-141.799zM166.989 230.81c0 48.947 39.68 88.602 88.627 88.602 48.921 0 88.627-39.654 88.627-88.602s-39.705-88.627-88.627-88.627c-48.973 0-88.627 39.68-88.627 88.627zM417.459 332.8h-41.344c-9.779 0-17.715 7.987-17.715 17.715v41.395c0 9.779 7.936 17.69 17.69 17.69h41.344c9.83 0 17.767-7.911 17.767-17.69v-41.369c0-9.754-7.936-17.741-17.741-17.741z" />
<glyph unicode="&#xe61c;" d="M219.494 113.254c-12.211-8.909-37.248-26.214-86.554-26.214-68.121 0-132.941 48.461-132.941 138.368 0 93.389 67.507 148.352 137.063 148.352 78.003 0 107.085-28.365 131.686-105.191l19.353-59.111c14.106-43.213 43.853-74.496 103.065-74.496 39.885 0 60.979 8.858 60.979 30.695 0 17.152-9.959 29.594-39.859 36.711l-39.911 9.447c-48.64 11.801-67.993 37.248-67.993 77.44 0 64.409 51.609 84.505 104.371 84.505 59.827 0 96.179-21.862 100.864-75.059l-58.649-7.091c-2.355 25.395-17.613 36.045-45.747 36.045-25.805 0-41.651-11.802-41.651-31.898 0-17.741 7.654-28.39 33.459-34.304l37.529-8.295c50.432-11.802 77.44-36.659 77.44-84.557 0-59.111-49.255-81.561-122.010-81.561-101.453 0-136.653 46.106-155.392 103.45l-18.791 59.111c-14.054 43.187-25.344 74.291-76.954 74.291-35.789 0-82.406-23.449-82.406-96.153 0-56.755 38.989-92.263 79.463-92.263 34.304 0 54.938 19.303 65.638 28.954l17.946-51.175z" />
<glyph unicode="&#xe61d;" d="M128 409.6c0-27.187-18.176-50.586-51.225-50.586-31.104 0-51.175 22.067-51.175 49.255 0 27.904 19.456 52.531 51.2 52.531s50.585-23.296 51.2-51.2zM25.6 0v332.8h102.4v-332.8h-102.4zM179.2 219.034c0 39.552-1.305 72.601-2.611 101.146h92.007l4.557-44.109h1.945c12.954 20.761 44.697 51.2 97.843 51.2 64.819 0 113.459-43.392 113.459-136.755v-190.515h-102.4v175.642c0 40.806-15.539 71.936-51.2 71.936-27.187 0-40.806-22.016-47.949-40.167-2.611-6.502-3.251-15.565-3.251-24.653v-182.758h-102.4v219.034z" />
<glyph unicode="&#xe61e;" d="M220.595 147.789c-13.465-70.502-29.875-138.087-78.541-173.389-15.001 106.547 22.042 186.547 39.27 271.488-29.363 49.408 3.533 148.787 65.408 124.288 76.16-30.105-65.945-183.603 29.44-202.803 99.61-19.993 140.262 172.8 78.49 235.495-89.216 90.573-259.738 2.125-238.745-127.539 5.094-31.693 37.837-41.293 13.082-85.043-57.114 12.647-74.163 57.703-71.962 117.76 3.533 98.304 88.294 167.091 173.338 176.64 107.546 12.058 208.487-39.501 222.439-140.646 15.693-114.202-48.538-237.901-163.559-228.992-31.181 2.432-44.237 17.894-68.659 32.743z" />
<glyph unicode="&#xe61f;" d="M414.797 230.374c0-110.259-88.269-199.655-197.145-199.655s-197.171 89.395-197.171 199.655c0 110.311 88.269 199.706 197.145 199.706 15.642 0 30.822-1.946 45.414-5.453v-113.69c-23.091 8.448-51.456 7.194-78.157-5.709-48.256-23.296-72.73-75.699-54.656-116.992 18.048-41.344 71.859-56.013 120.089-32.691 33.255 16.051 62.541 54.707 62.541 103.143v146.534c4.147-2.304 8.192-4.813 12.16-7.399 37.478-23.552 93.133-55.091 158.157-58.394 25.344-1.255-9.959-65.049-70.093-82.841 1.127-8.55 1.715-17.305 1.715-26.214z" />
<glyph unicode="&#xe620;" d="M282.906 280.090l34.944-16.896 52.711 16.896v30.566c0 63.053-51.405 114.304-114.56 114.304s-114.56-51.251-114.56-114.304v-160.512c0-14.797-12.083-26.855-26.906-26.855-14.848 0-26.906 12.058-26.906 26.855v67.2h-87.629v-67.2c0-63.002 51.379-114.304 114.56-114.304 63.155 0 114.534 51.303 114.534 114.304v160.512c0 14.797 12.083 26.854 26.931 26.854 14.822 0 26.906-12.058 26.906-26.854v-30.567zM424.346 217.344v-67.2c0-14.797-12.058-26.855-26.906-26.855s-26.906 12.058-26.906 26.855v68.557l-52.711-16.845-34.944 16.845v-68.557c0-63.002 51.405-114.304 114.56-114.304s114.56 51.303 114.56 114.304v67.2h-87.654z" />
<glyph unicode="&#xe621;" d="M399.36 20.582c-19.891-9.498-37.888-16.154-53.99-19.993-16.128-3.789-33.562-5.709-52.301-5.709-21.274 0-40.089 2.739-56.448 8.141-16.358 5.453-30.285 13.209-41.856 23.245-11.546 10.112-19.559 20.787-24.013 32.103-4.454 11.341-6.681 27.801-6.681 49.305v165.248h-51.43v66.663c18.279 5.99 33.946 14.592 46.976 25.856 13.056 11.213 23.501 24.704 31.411 40.448 7.885 15.693 13.286 35.738 16.281 60.032h66.176v-119.091h110.438v-73.907h-110.438v-120.807c0-27.289 1.433-44.851 4.301-52.608 2.841-7.757 8.166-13.952 15.923-18.56 10.317-6.247 22.093-9.395 35.353-9.395 23.552 0 47.002 7.757 70.298 23.245v-74.214z" />
<glyph unicode="&#xe622;" d="M443.289 326.502c0.205-4.147 0.281-8.345 0.281-12.493 0-127.744-97.203-274.995-274.944-274.995-54.605 0-105.37 16-148.147 43.443 7.578-0.896 15.258-1.357 23.040-1.357 45.312 0 86.963 15.462 120.013 41.344-42.266 0.793-77.978 28.697-90.266 67.097 5.888-1.101 11.955-1.69 18.176-1.69 8.832 0 17.383 1.152 25.472 3.353-44.211 8.909-77.517 47.949-77.517 94.797 0 0.409 0 0.793 0 1.203 13.031-7.245 27.955-11.597 43.776-12.109-25.933 17.357-43.008 46.899-43.008 80.461 0 17.69 4.761 34.304 13.107 48.589 47.642-58.496 118.887-96.947 199.194-100.992-1.638 7.091-2.483 14.439-2.483 22.042 0 53.35 43.239 96.589 96.614 96.589 27.801 0 52.915-11.699 70.553-30.489 21.99 4.352 42.675 12.391 61.363 23.45-7.219-22.553-22.553-41.498-42.496-53.453 19.558 2.355 38.144 7.501 55.501 15.207-12.954-19.405-29.337-36.403-48.231-49.997z" />
<glyph unicode="&#xe623;" d="M484.096 336.896c-25.753-147.789-169.6-272.896-212.864-301.491-43.264-28.544-82.765 11.443-97.075 41.754-16.41 34.483-65.51 221.594-78.387 237.082-12.877 15.514-51.456-15.488-51.456-15.488l-18.713 24.986c0 0 78.362 95.36 138.010 107.289 63.232 12.621 63.13-98.918 78.336-160.819 14.695-59.955 24.601-94.208 37.453-94.208s37.427 33.408 64.307 84.608c26.957 51.303-1.152 96.563-53.786 64.358 21.069 128.691 219.93 159.642 194.176 11.93z" />
<glyph unicode="&#xe624;" d="M256 427.52c-251.597 0-256-22.375-256-197.12s4.403-197.12 256-197.12 256 22.375 256 197.12-4.403 197.12-256 197.12zM338.048 221.849l-114.944-53.657c-10.061-4.659-18.304 0.563-18.304 11.673v101.069c0 11.085 8.243 16.333 18.304 11.673l114.944-53.658c10.061-4.71 10.061-12.391 0-17.101z" />
</font>
</defs>
</svg>
